<?xml version="1.0" standalone="no"?>
<!DOCTYPE svg PUBLIC "-//W3C//DTD SVG 20010904//EN"
 "http://www.w3.org/TR/2001/REC-SVG-20010904/DTD/svg10.dtd">
<svg version="1.0" xmlns="http://www.w3.org/2000/svg"
 width="250.000000pt" height="250.000000pt" viewBox="0 0 250.000000 250.000000"
 preserveAspectRatio="xMidYMid meet">
<metadata>
Created by potrace 1.11, written by Peter Selinger 2001-2013
</metadata>
<g transform="translate(0.000000,250.000000) scale(0.100000,-0.100000)"
fill="#000000" stroke="none">
<path d="M2285 2163 c-44 -9 -75 -26 -75 -39 0 -12 4 -12 29 0 50 26 98 26
126 0 19 -17 24 -30 21 -51 -9 -47 -44 -69 -118 -72 -41 -2 -14 -19 39 -24 63
-7 82 -20 89 -65 4 -25 -1 -37 -20 -57 -14 -14 -35 -25 -48 -26 -46 -2 -93 3
-110 12 -14 7 -18 6 -18 -5 0 -34 131 -41 178 -10 31 20 51 70 43 103 -4 14
-21 35 -37 46 l-30 20 28 23 c73 61 1 167 -97 145z"/>
<path d="M159 1911 c-4 -38 0 -1403 4 -1408 9 -9 288 -10 308 -1 11 5 15 20
14 55 l-1 48 -94 1 c-52 1 -100 2 -106 3 -7 1 -11 180 -10 601 l0 599 105 3
106 3 0 50 0 50 -162 1 c-90 0 -163 -2 -164 -5z"/>
<path d="M1849 1916 c-1 -1 -2 -25 -3 -53 l-2 -53 106 0 105 0 1 -600 c0 -598
0 -600 -21 -601 -11 -1 -58 -2 -104 -3 l-85 -1 -1 -52 c-1 -41 2 -53 14 -54
20 -1 282 -1 299 0 9 1 12 150 12 710 l0 708 -160 0 c-88 0 -161 -1 -161 -1z"/>
<path d="M1055 1893 c-181 -40 -335 -165 -404 -325 -54 -126 -63 -328 -21
-463 62 -199 219 -341 419 -379 183 -35 370 20 483 143 l55 58 -2 -86 c0 -47
1 -92 3 -98 3 -9 24 -13 62 -13 l58 0 0 304 c0 222 -3 306 -11 309 -7 2 -129
3 -272 3 l-260 -1 0 -60 0 -59 210 -1 c180 0 210 -2 210 -15 -7 -212 -190
-371 -420 -364 -77 2 -125 12 -184 40 -152 69 -238 209 -246 399 -8 195 74
355 223 433 82 43 148 55 261 50 125 -6 205 -41 280 -124 28 -31 51 -60 51
-65 0 -5 32 -8 70 -8 39 1 70 5 70 9 0 23 -61 111 -112 161 -69 69 -172 123
-273 144 -65 14 -205 18 -250 8z"/>
</g>
</svg>
